<?xml version="1.0" encoding="utf-8"?>
<!-- Generator: Adobe Illustrator 19.0.0, SVG Export Plug-In . SVG Version: 6.00 Build 0)  -->
<svg version="1.1" id="Layer_1" xmlns="http://www.w3.org/2000/svg" xmlns:xlink="http://www.w3.org/1999/xlink" x="0px" y="0px"
	 viewBox="131 -131 512 512" style="enable-background:new 131 -131 512 512;" xml:space="preserve">
<style type="text/css">
	.st0{fill:#9FC751;}
</style>
<g>
	<g>
		<path class="st0" d="M486.8,291l-79.7-79.7c-2.5-2.5-6.2-3.2-9.4-1.9s-5.3,4.5-5.3,8v79.7c0,4.8,3.9,8.6,8.6,8.6h79.7
			c3.5,0,6.6-2.1,8-5.3C490,297.1,489.3,293.4,486.8,291z M409.6,288.4v-50.3l50.3,50.3H409.6z"/>
	</g>
</g>
<g>
	<g>
		<path class="st0" d="M634.7,35.2c-1.5-2.9-4.4-4.8-7.7-4.8h-46.9V2c0-4.8-3.9-8.6-8.6-8.6H339.2v-72.6c0-4.8-3.9-8.6-8.6-8.6
			h-53.4c-4.8,0-8.6,3.9-8.6,8.6v72.6h-52.1v-59.6c0-4.8-3.9-8.6-8.6-8.6h-34.1c-11.4,0-22.1,4.4-30.2,12.5
			c-8.1,8.1-12.5,18.8-12.5,30.2V255c0,0.1,0,0.3,0,0.4c0,11.4,4.4,22.1,12.5,30.2c8.1,8.1,18.8,12.5,30.2,12.5h186.5v31
			c0,4.8,3.9,8.6,8.6,8.6h189.6c3.5,0,6.6-2.1,8-5.3c1.3-3.2,0.6-6.9-1.9-9.4l-24.9-24.9h31.9c4.8,0,8.6-3.9,8.6-8.6V111H627
			c3.3,0,6.3-1.9,7.7-4.8C645.8,84,645.8,57.4,634.7,35.2z M285.7,170.7h12.1c4.8,0,8.6-3.9,8.6-8.6s-3.9-8.6-8.6-8.6h-12.1v-23.8
			h12.1c4.8,0,8.6-3.9,8.6-8.6c0-4.8-3.9-8.6-8.6-8.6h-12.1V88.6h12.1c4.8,0,8.6-3.9,8.6-8.6s-3.9-8.6-8.6-8.6h-12.1V47.6h12.1
			c4.8,0,8.6-3.9,8.6-8.6s-3.9-8.6-8.6-8.6h-12.1V6.6h12.1c4.8,0,8.6-3.9,8.6-8.6s-3.9-8.6-8.6-8.6h-12.1v-23.8h12.1
			c4.8,0,8.6-3.9,8.6-8.6s-3.9-8.6-8.6-8.6h-12.1v-19h36.2v260.2h-36.2V170.7z M155.7-50.1c4.8-4.8,11.2-7.5,18-7.5h25.5v270.3
			h-25.5c-9.5,0-18.4,3.1-25.5,8.5l0-253.3C148.2-38.9,150.9-45.3,155.7-50.1z M377.4,320.6V160.5l160.2,160.2H377.4z M562.8,281
			L562.8,281h-40.5L374.9,133.6c-2.5-2.5-6.2-3.2-9.4-1.9c-3.2,1.3-5.3,4.5-5.3,8V281H173.7c-6.8,0-13.2-2.6-18-7.5
			c-4.8-4.8-7.5-11.2-7.5-18c0,0,0,0,0,0l0-0.3c0.2-13.9,11.5-25.1,25.5-25.1h34.1c4.8,0,8.6-3.9,8.6-8.6V10.6h52.1v187.6
			c0,4.8,3.9,8.6,8.6,8.6h53.4c4.8,0,8.6-3.9,8.6-8.6V10.6h223.7v19.7h-100c-1.7,0-3.4,0.5-4.8,1.5l-47.3,31.7
			c-2.4,1.6-3.8,4.3-3.8,7.2s1.4,5.6,3.8,7.2l47.3,31.7c1.4,1,3.1,1.5,4.8,1.5h100V281z M451.8,56.8l6.5-4.4c3.2,12,3.2,24.7,0,36.7
			l-6.5-4.4c1.7-4.4,2.6-9.1,2.6-13.9C454.4,65.9,453.5,61.2,451.8,56.8z M437.1,70.7c0,1.3-0.1,2.6-0.4,3.9l-5.8-3.9l5.8-3.9
			C437,68.1,437.1,69.4,437.1,70.7z M584.9,93.8H474.9c1.3-4.8,2.2-9.6,2.6-14.5h111.2C588,84.3,586.8,89.1,584.9,93.8z M477.5,62.1
			c-0.5-4.9-1.4-9.7-2.6-14.5h110.1c1.8,4.7,3.1,9.5,3.8,14.5H477.5z M621.4,93.8h-18.3c4.5-15,4.5-31.2,0-46.2h18.3
			C627.2,62.4,627.2,79,621.4,93.8z"/>
	</g>
</g>
</svg>
