<?xml version="1.0" encoding="iso-8859-1"?>
<!-- Generator: Adobe Illustrator 18.0.0, SVG Export Plug-In . SVG Version: 6.00 Build 0)  -->
<!DOCTYPE svg PUBLIC "-//W3C//DTD SVG 1.1//EN" "http://www.w3.org/Graphics/SVG/1.1/DTD/svg11.dtd">
<svg xmlns="http://www.w3.org/2000/svg" xmlns:xlink="http://www.w3.org/1999/xlink" version="1.1" id="Capa_1" x="0px" y="0px" viewBox="0 0 437.59 437.59" style="enable-background:new 0 0 437.59 437.59;" xml:space="preserve" width="512px" height="512px">
<g>
	<path d="M317.996,0h-198.4c-12.633,0-22.91,10.277-22.91,22.91v391.77c0,12.632,10.277,22.91,22.91,22.91h198.4   c12.632,0,22.909-10.277,22.909-22.91V22.91C340.905,10.277,330.627,0,317.996,0z M119.595,11h198.4   c6.566,0,11.909,5.343,11.909,11.91v29.062h-222.22V22.91C107.685,16.343,113.028,11,119.595,11z M329.905,62.972v302.611h-222.22   V62.972H329.905z M317.996,426.59h-198.4c-6.567,0-11.91-5.343-11.91-11.91v-38.098h222.22v38.098   C329.905,421.247,324.562,426.59,317.996,426.59z" fill="#006DF0"/>
	<path d="M199.025,34.262h39.542c3.037,0,5.5-2.462,5.5-5.5s-2.463-5.5-5.5-5.5h-39.542c-3.037,0-5.5,2.462-5.5,5.5   S195.988,34.262,199.025,34.262z" fill="#006DF0"/>
	<path d="M218.795,383.771c-9.885,0-17.927,8.042-17.927,17.928s8.042,17.927,17.927,17.927c9.886,0,17.928-8.042,17.928-17.927   S228.681,383.771,218.795,383.771z M218.795,408.626c-3.819,0-6.927-3.107-6.927-6.927s3.107-6.928,6.927-6.928   c3.82,0,6.928,3.108,6.928,6.928S222.616,408.626,218.795,408.626z" fill="#006DF0"/>
	<path d="M131.901,137.558c-4.442,5.656-7.102,12.775-7.102,20.507v121.459c0,7.733,2.66,14.852,7.102,20.507l-12.98,12.98   c-1.563,1.562-1.563,4.095,0,5.657c0.781,0.781,1.805,1.171,2.828,1.171s2.048-0.391,2.828-1.171l12.98-12.98   c5.656,4.443,12.775,7.102,20.508,7.102h121.459c7.733,0,14.852-2.659,20.507-7.102l12.98,12.98   c0.781,0.781,1.805,1.171,2.828,1.171s2.048-0.391,2.828-1.171c1.563-1.563,1.563-4.095,0-5.657l-12.98-12.98   c4.442-5.655,7.102-12.775,7.102-20.507V158.065c0-7.733-2.659-14.852-7.102-20.507l12.98-12.98c1.563-1.563,1.563-4.095,0-5.657   c-1.561-1.562-4.096-1.562-5.656,0l-12.98,12.98c-5.656-4.443-12.774-7.102-20.507-7.102H158.066   c-7.733,0-14.852,2.66-20.508,7.102l-12.98-12.98c-1.563-1.562-4.096-1.562-5.656,0c-1.563,1.563-1.563,4.095,0,5.657   L131.901,137.558z M301.791,258.28H274.33c7.952-11.151,12.649-24.776,12.649-39.485s-4.698-28.334-12.649-39.485h27.461V258.28z    M249.06,267.28c-8.785,5.503-19.156,8.698-30.265,8.698s-21.48-3.195-30.265-8.698H249.06z M179.31,258.28V179.31h78.971v78.971   H179.31z M267.281,188.53c5.503,8.785,8.698,19.156,8.698,30.265s-3.195,21.48-8.698,30.265V188.53z M188.531,170.31   c8.785-5.503,19.156-8.698,30.265-8.698s21.48,3.195,30.265,8.698H188.531z M170.31,249.06c-5.503-8.785-8.698-19.156-8.698-30.265   s3.195-21.48,8.698-30.265V249.06z M218.795,286.979c14.709,0,28.334-4.698,39.485-12.649v27.461H179.31v-27.461   C190.461,282.281,204.086,286.979,218.795,286.979z M218.795,150.611c-14.709,0-28.334,4.698-39.485,12.649v-27.461h78.971v27.461   C247.129,155.309,233.505,150.611,218.795,150.611z M150.612,218.795c0,14.709,4.698,28.334,12.649,39.485h-27.462V179.31h27.462   C155.309,190.461,150.612,204.086,150.612,218.795z M145.414,297.833l19.617-19.616c1.563-1.563,1.563-4.095,0-5.657   c-1.563-1.562-4.096-1.562-5.656,0l-19.617,19.617c-2.492-3.596-3.958-7.955-3.958-12.652V267.28h34.511v34.51h-12.244   C153.369,301.791,149.01,300.325,145.414,297.833z M278.215,272.559c-1.563-1.562-4.096-1.562-5.656,0   c-1.563,1.563-1.563,4.095,0,5.657l19.617,19.616c-3.596,2.492-7.954,3.958-12.651,3.958h-12.244v-34.51h34.51v12.244   c0,4.697-1.466,9.056-3.958,12.652L278.215,272.559z M292.176,139.757l-20.302,20.302c-1.563,1.563-1.563,4.095,0,5.657   c0.781,0.781,1.805,1.171,2.828,1.171s2.048-0.391,2.828-1.171l20.302-20.302c2.492,3.596,3.958,7.955,3.958,12.651v12.244h-34.51   v-34.51h12.244C284.222,135.799,288.581,137.265,292.176,139.757z M158.066,135.799h12.244v34.51h-34.511v-12.244   c0-4.697,1.466-9.056,3.958-12.652l20.303,20.302c0.781,0.781,1.805,1.171,2.828,1.171s2.048-0.391,2.828-1.171   c1.563-1.563,1.563-4.095,0-5.657l-20.302-20.302C149.01,137.265,153.369,135.799,158.066,135.799z" fill="#006DF0"/>
	<path d="M253.965,248.309l-11.225-11.225c3.886-5.077,6.203-11.416,6.203-18.288s-2.316-13.212-6.203-18.288l10.791-10.791   c1.563-1.563,1.563-4.095,0-5.657c-1.561-1.562-4.096-1.562-5.656,0l-10.791,10.791c-5.076-3.886-11.415-6.203-18.288-6.203   c-6.873,0-13.212,2.316-18.289,6.203l-10.792-10.791c-1.561-1.562-4.096-1.562-5.656,0c-1.563,1.563-1.563,4.095,0,5.657   l10.791,10.791c-3.887,5.077-6.203,11.416-6.203,18.288s2.316,13.212,6.203,18.288l-11.226,11.225   c-1.563,1.563-1.563,4.095,0,5.657c0.78,0.781,1.805,1.171,2.828,1.171s2.048-0.391,2.828-1.171l11.226-11.226   c5.076,3.887,11.416,6.203,18.289,6.203c6.873,0,13.211-2.316,18.288-6.203l11.226,11.226c0.78,0.781,1.805,1.171,2.828,1.171   s2.048-0.391,2.828-1.171C255.528,252.403,255.528,249.871,253.965,248.309z M239.943,218.795c0,4.388-1.345,8.467-3.642,11.85   l-11.85-11.85l11.85-11.85C238.598,210.328,239.943,214.407,239.943,218.795z M218.795,197.647c4.388,0,8.467,1.345,11.849,3.642   l-11.85,11.85l-11.849-11.849C210.328,198.992,214.407,197.647,218.795,197.647z M197.647,218.795   c0-4.388,1.345-8.467,3.642-11.849l11.849,11.849l-11.849,11.849C198.992,227.262,197.647,223.183,197.647,218.795z    M218.795,239.943c-4.388,0-8.467-1.345-11.85-3.642l11.849-11.849l11.85,11.85C227.262,238.598,223.183,239.943,218.795,239.943z" fill="#006DF0"/>
</g>
<g>
</g>
<g>
</g>
<g>
</g>
<g>
</g>
<g>
</g>
<g>
</g>
<g>
</g>
<g>
</g>
<g>
</g>
<g>
</g>
<g>
</g>
<g>
</g>
<g>
</g>
<g>
</g>
<g>
</g>
</svg>
