<?xml version="1.0" encoding="utf-8"?>
<!-- Generator: Adobe Illustrator 19.0.0, SVG Export Plug-In . SVG Version: 6.00 Build 0)  -->
<svg version="1.1" id="Capa_1" xmlns="http://www.w3.org/2000/svg" xmlns:xlink="http://www.w3.org/1999/xlink" x="0px" y="0px"
	 viewBox="131 -131 512 512" style="enable-background:new 131 -131 512 512;" xml:space="preserve">
<style type="text/css">
	.st0{fill:#9FC751;}
</style>
<g>
	<path class="st0" d="M503.1-131H270.9c-14.8,0-26.8,12-26.8,26.8v458.4c0,14.8,12,26.8,26.8,26.8h232.1c14.8,0,26.8-12,26.8-26.8
		v-458.4C529.9-119,517.8-131,503.1-131z M270.9-118.1h232.1c7.7,0,13.9,6.3,13.9,13.9v34H257v-34
		C257-111.9,263.2-118.1,270.9-118.1z M517-57.3v354.1H257V-57.3H517z M503.1,368.1H270.9c-7.7,0-13.9-6.3-13.9-13.9v-44.6h260v44.6
		C517,361.9,510.8,368.1,503.1,368.1z"/>
	<path class="st0" d="M363.9-90.9h46.3c3.6,0,6.4-2.9,6.4-6.4c0-3.6-2.9-6.4-6.4-6.4h-46.3c-3.6,0-6.4,2.9-6.4,6.4
		C357.4-93.8,360.3-90.9,363.9-90.9z"/>
	<path class="st0" d="M387,318c-11.6,0-21,9.4-21,21s9.4,21,21,21c11.6,0,21-9.4,21-21S398.6,318,387,318z M387,347.1
		c-4.5,0-8.1-3.6-8.1-8.1s3.6-8.1,8.1-8.1s8.1,3.6,8.1,8.1S391.5,347.1,387,347.1z"/>
	<path class="st0" d="M285.3,29.9c-5.2,6.6-8.3,14.9-8.3,24v142.1c0,9,3.1,17.4,8.3,24l-15.2,15.2c-1.8,1.8-1.8,4.8,0,6.6
		c0.9,0.9,2.1,1.4,3.3,1.4s2.4-0.5,3.3-1.4l15.2-15.2c6.6,5.2,14.9,8.3,24,8.3h142.1c9,0,17.4-3.1,24-8.3l15.2,15.2
		c0.9,0.9,2.1,1.4,3.3,1.4s2.4-0.5,3.3-1.4c1.8-1.8,1.8-4.8,0-6.6L488.7,220c5.2-6.6,8.3-14.9,8.3-24V53.9c0-9-3.1-17.4-8.3-24
		l15.2-15.2c1.8-1.8,1.8-4.8,0-6.6c-1.8-1.8-4.8-1.8-6.6,0L482,23.3c-6.6-5.2-14.9-8.3-24-8.3H315.9c-9,0-17.4,3.1-24,8.3L276.8,8.1
		c-1.8-1.8-4.8-1.8-6.6,0c-1.8,1.8-1.8,4.8,0,6.6L285.3,29.9z M484.1,171.2H452c9.3-13,14.8-29,14.8-46.2s-5.5-33.2-14.8-46.2h32.1
		V171.2z M422.4,181.7c-10.3,6.4-22.4,10.2-35.4,10.2s-25.1-3.7-35.4-10.2H422.4z M340.8,171.2V78.8h92.4v92.4L340.8,171.2
		L340.8,171.2z M443.7,89.6c6.4,10.3,10.2,22.4,10.2,35.4s-3.7,25.1-10.2,35.4V89.6z M351.6,68.3c10.3-6.4,22.4-10.2,35.4-10.2
		c13,0,25.1,3.7,35.4,10.2H351.6z M330.3,160.4c-6.4-10.3-10.2-22.4-10.2-35.4s3.7-25.1,10.2-35.4V160.4z M387,204.8
		c17.2,0,33.2-5.5,46.2-14.8v32.1h-92.4V190C353.8,199.3,369.8,204.8,387,204.8z M387,45.2c-17.2,0-33.2,5.5-46.2,14.8V27.9h92.4V60
		C420.2,50.7,404.2,45.2,387,45.2z M307.2,125c0,17.2,5.5,33.2,14.8,46.2h-32.1V78.8H322C312.7,91.8,307.2,107.8,307.2,125z
		 M301.1,217.5l23-23c1.8-1.8,1.8-4.8,0-6.6c-1.8-1.8-4.8-1.8-6.6,0l-23,23c-2.9-4.2-4.6-9.3-4.6-14.8v-14.3h40.4v40.4h-14.3
		C310.4,222.1,305.3,220.4,301.1,217.5z M456.5,187.9c-1.8-1.8-4.8-1.8-6.6,0c-1.8,1.8-1.8,4.8,0,6.6l23,23
		c-4.2,2.9-9.3,4.6-14.8,4.6h-14.3v-40.4h40.4v14.3c0,5.5-1.7,10.6-4.6,14.8L456.5,187.9z M472.9,32.5l-23.8,23.8
		c-1.8,1.8-1.8,4.8,0,6.6c0.9,0.9,2.1,1.4,3.3,1.4s2.4-0.5,3.3-1.4l23.8-23.8c2.9,4.2,4.6,9.3,4.6,14.8v14.3h-40.4V27.9h14.3
		C463.6,27.9,468.7,29.6,472.9,32.5z M315.9,27.9h14.3v40.4h-40.4V53.9c0-5.5,1.7-10.6,4.6-14.8l23.8,23.8c0.9,0.9,2.1,1.4,3.3,1.4
		s2.4-0.5,3.3-1.4c1.8-1.8,1.8-4.8,0-6.6l-23.8-23.8C305.3,29.6,310.4,27.9,315.9,27.9z"/>
	<path class="st0" d="M428.2,159.5L415,146.4c4.5-5.9,7.3-13.4,7.3-21.4s-2.7-15.5-7.3-21.4L427.6,91c1.8-1.8,1.8-4.8,0-6.6
		c-1.8-1.8-4.8-1.8-6.6,0L408.4,97c-5.9-4.5-13.4-7.3-21.4-7.3s-15.5,2.7-21.4,7.3L353,84.4c-1.8-1.8-4.8-1.8-6.6,0
		c-1.8,1.8-1.8,4.8,0,6.6l12.6,12.6c-4.5,5.9-7.3,13.4-7.3,21.4s2.7,15.5,7.3,21.4l-13.1,13.1c-1.8,1.8-1.8,4.8,0,6.6
		c0.9,0.9,2.1,1.4,3.3,1.4s2.4-0.5,3.3-1.4l13.1-13.1c5.9,4.5,13.4,7.3,21.4,7.3s15.5-2.7,21.4-7.3l13.1,13.1
		c0.9,0.9,2.1,1.4,3.3,1.4s2.4-0.5,3.3-1.4C430,164.3,430,161.4,428.2,159.5z M411.7,125c0,5.1-1.6,9.9-4.3,13.9L393.6,125
		l13.9-13.9C410.2,115.1,411.7,119.9,411.7,125z M387,100.3c5.1,0,9.9,1.6,13.9,4.3L387,118.4l-13.9-13.9
		C377.1,101.8,381.9,100.3,387,100.3z M362.3,125c0-5.1,1.6-9.9,4.3-13.9l13.9,13.9l-13.9,13.9C363.8,134.9,362.3,130.1,362.3,125z
		 M387,149.7c-5.1,0-9.9-1.6-13.9-4.3l13.9-13.9l13.9,13.9C396.9,148.2,392.1,149.7,387,149.7z"/>
</g>
</svg>
