<?xml version="1.0" encoding="utf-8"?>
<!-- Generator: Adobe Illustrator 19.0.0, SVG Export Plug-In . SVG Version: 6.00 Build 0)  -->
<svg version="1.1" id="Layer_1" xmlns="http://www.w3.org/2000/svg" xmlns:xlink="http://www.w3.org/1999/xlink" x="0px" y="0px"
	 viewBox="131 -131 512 512" style="enable-background:new 131 -131 512 512;" xml:space="preserve">
<style type="text/css">
	.st0{fill:#9FC751;}
</style>
<g>
	<g>
		<path class="st0" d="M619.4,361h-21.9V42.5c0-14.8-12.1-26.9-26.9-26.9h-49c-14.8,0-26.9,12.1-26.9,26.9V361H439V186.8
			c0-14.8-12.1-26.9-26.9-26.9h-49c-14.8,0-26.9,12.1-26.9,26.9V361h-55.7v-90.2c0-14.8-12.1-26.9-26.9-26.9h-49
			c-14.8,0-26.9,12.1-26.9,26.9V361h-23.1c-5.5,0-10,4.5-10,10s4.5,10,10,10h464.8c5.5,0,10-4.5,10-10S624.9,361,619.4,361z
			 M260.5,361h-62.8v-90.2c0-3.8,3.1-6.9,6.9-6.9h49c3.8,0,6.9,3.1,6.9,6.9L260.5,361L260.5,361z M419,361h-62.8V186.8
			c0-3.8,3.1-6.9,6.9-6.9h49c3.8,0,6.9,3.1,6.9,6.9V361z M577.5,361h-62.8V42.5c0-3.8,3.1-6.9,6.9-6.9h49c3.8,0,6.9,3.1,6.9,6.9
			L577.5,361L577.5,361z"/>
	</g>
</g>
<g>
	<g>
		<path class="st0" d="M597.4-120.5c0.1-2.7-0.8-5.5-2.9-7.6c-2.1-2.1-4.9-3-7.6-2.9c-0.2,0-0.3,0-0.5,0H526c-5.5,0-10,4.5-10,10
			s4.5,10,10,10h37.4l-98.9,98.9l-37.3-37.3c-1.9-1.9-4.4-2.9-7.1-2.9s-5.2,1.1-7.1,2.9L233.3,130.3c-3.9,3.9-3.9,10.2,0,14.1
			c2,2,4.5,2.9,7.1,2.9s5.1-1,7.1-2.9L420.1-28.2l37.3,37.3c3.9,3.9,10.2,3.9,14.1,0L577.5-96.9V-63c0,5.5,4.5,10,10,10
			s10-4.5,10-10v-57C597.5-120.2,597.4-120.3,597.4-120.5z"/>
	</g>
</g>
<g>
	<g>
		<circle class="st0" cx="206.6" cy="172.3" r="10"/>
	</g>
</g>
</svg>
