<?xml version="1.0" encoding="utf-8"?>
<!-- Generator: Adobe Illustrator 19.0.0, SVG Export Plug-In . SVG Version: 6.00 Build 0)  -->
<svg version="1.1" id="Capa_1" xmlns="http://www.w3.org/2000/svg" xmlns:xlink="http://www.w3.org/1999/xlink" x="0px" y="0px"
	 viewBox="131 -131 512 512" style="enable-background:new 131 -131 512 512;" xml:space="preserve">
<style type="text/css">
	.st0{fill:#9FC751;}
</style>
<g>
	<path class="st0" d="M536.7,197.9c-29.4,0-55.7,14-72.5,35.7l-140.7-78.6c3.3-9.5,5.1-19.7,5.1-30.2c0-10.6-1.8-20.7-5.2-30.3
		L464,16.1c16.7,21.8,43.1,35.9,72.6,35.9c50.4,0,91.5-41,91.5-91.5s-41-91.5-91.5-91.5S445-90,445-39.5c0,10.6,1.8,20.8,5.2,30.3
		L309.8,69.3c-16.7-21.9-43.1-35.9-72.6-35.9c-50.4,0-91.5,41-91.5,91.5s41.1,91.5,91.6,91.5c29.6,0,55.9-14.1,72.7-36L450.6,259
		c-3.4,9.6-5.3,19.9-5.3,30.5c0,50.4,41,91.5,91.5,91.5s91.5-41,91.5-91.5S587.2,197.9,536.7,197.9z M536.7-102.2
		c34.7,0,62.8,28.2,62.8,62.8s-28.2,62.8-62.8,62.8c-34.7,0-62.8-28.2-62.8-62.8S502.1-102.2,536.7-102.2z M237.3,187.7
		c-34.7,0-62.8-28.2-62.8-62.8s28.2-62.8,62.8-62.8s62.8,28.2,62.8,62.8S271.9,187.7,237.3,187.7z M536.7,352.2
		c-34.7,0-62.8-28.2-62.8-62.8s28.2-62.8,62.8-62.8c34.7,0,62.8,28.2,62.8,62.8S571.3,352.2,536.7,352.2z"/>
</g>
</svg>
