<?xml version="1.0" encoding="utf-8"?>
<!-- Generator: Adobe Illustrator 19.0.0, SVG Export Plug-In . SVG Version: 6.00 Build 0)  -->
<svg version="1.1" id="Layer_1" xmlns="http://www.w3.org/2000/svg" xmlns:xlink="http://www.w3.org/1999/xlink" x="0px" y="0px"
	 viewBox="131 -131 512 512" style="enable-background:new 131 -131 512 512;" xml:space="preserve">
<style type="text/css">
	.st0{fill:#9FC751;}
</style>
<g>
	<g>
		<path class="st0" d="M422.5,198.3c-14.4,0-26,11.7-26,26c0,14.4,11.7,26,26,26c14.4,0,26-11.7,26-26
			C448.6,210,436.9,198.3,422.5,198.3z M422.5,233.7c-5.2,0-9.4-4.2-9.4-9.4c0-5.2,4.2-9.4,9.4-9.4s9.4,4.2,9.4,9.4
			S427.7,233.7,422.5,233.7z"/>
	</g>
</g>
<g>
	<g>
		<path class="st0" d="M557.2-81.6l3.5-10.4c1.5-4.4-0.9-9.1-5.2-10.6c-4.4-1.5-9.1,0.9-10.6,5.2L541.4-87
			c-6.1-0.5-12.2,0.6-17.9,3.4c-8.2,4-14.3,11-17.2,19.7l-32.7,96.2h-10.1l-1.7-120.9c-0.2-11.2-9.4-20.4-20.7-20.4
			c-11.2,0-20.5,9.1-20.7,20.4l-1.7,120.9h-19.1V-65c0-1.7-0.5-3.3-1.4-4.6l-38.7-57.7c-1.5-2.3-4.1-3.7-6.9-3.7
			c-2.8,0-5.4,1.4-6.9,3.7l-38.7,57.7c-0.9,1.4-1.4,3-1.4,4.6v97.3h-20.3c-4.6,0-8.3,3.7-8.3,8.3c0,4.6,3.7,8.3,8.3,8.3h1.7v28.1
			h-32.2c-29.5,0-53.6,24-53.6,53.6v122.1c0,29.5,24,53.6,53.6,53.6H287v26.3c0,26.6,21.7,48.3,48.3,48.3h175.6
			c26.6,0,48.3-21.7,48.3-48.3V49h1.7c4.6,0,8.3-3.7,8.3-8.3c0-4.6-3.7-8.3-8.3-8.3h-15.1L571-41.9C576.1-57,570-73.3,557.2-81.6z
			 M287,258.6h-29.2c-4.9,0-8.8-4-8.8-8.8V133.7c0-4.9,4-8.8,8.8-8.8H287V258.6z M287,108.2h-29.2c-14.1,0-25.5,11.4-25.5,25.5
			v116.1c0,14.1,11.4,25.5,25.5,25.5H287v14.4h-32.2c-20.4,0-36.9-16.6-36.9-36.9V130.7c0-20.4,16.6-36.9,36.9-36.9H287V108.2z
			 M503-2.5l33.1,11.3l-8,23.6h-37L503-2.5z M437.1-88.3c0-2.2,1.8-4,4-4c2.2,0,4,1.8,4,4l1.7,120.6h-11.4L437.1-88.3z M424.5,49
			c0.5,0.1,1,0.3,1.5,0.3v94.8c0,4.5-3.7,8.2-8.2,8.2c-4.5,0-8.2-3.7-8.2-8.2v-26.8c0-13.7-11.2-24.9-24.9-24.9
			s-24.9,11.2-24.9,24.9v52c0,4.5-3.7,8.2-8.2,8.2s-8.2-3.7-8.2-8.2V49H424.5z M383,32.3h-22V-49c7.4-0.6,14.8-2,22-4.1V32.3z
			 M352.7-107.7l8.3,12.4c-2.7,0.8-5.4,1.2-8.3,1.2c-2.8,0-5.6-0.4-8.3-1.2L352.7-107.7z M334.9-81.1c5.6,2.4,11.6,3.7,17.8,3.7
			c6.2,0,12.2-1.3,17.8-3.7l8,12c-16.8,5.1-34.9,5.1-51.7,0L334.9-81.1z M322.3-53.1c7.2,2.1,14.6,3.5,22,4.1v81.3h-22V-53.1z
			 M542.5,332.7L542.5,332.7c0,17.4-14.2,31.6-31.6,31.6H335.3c-17.4,0-31.6-14.2-31.6-31.6V49h22.8v120.3
			c0,13.7,11.2,24.9,24.9,24.9c13.7,0,24.9-11.2,24.9-24.9v-52c0-4.5,3.7-8.2,8.2-8.2c4.5,0,8.2,3.7,8.2,8.2v26.8
			c0,13.7,11.2,24.9,24.9,24.9s24.9-11.2,24.9-24.9V49.4l99.9-0.4V332.7z M555.2-47.3L541.5-7l-33.1-11.3l13.7-40.2
			c1.5-4.4,4.6-8,8.8-10.1c4.2-2.1,8.9-2.4,13.4-0.9C553.4-66.4,558.3-56.4,555.2-47.3z"/>
	</g>
</g>
</svg>
