<?xml version="1.0" encoding="utf-8"?>
<!-- Generator: Adobe Illustrator 19.0.0, SVG Export Plug-In . SVG Version: 6.00 Build 0)  -->
<svg version="1.1" id="Layer_1" xmlns="http://www.w3.org/2000/svg" xmlns:xlink="http://www.w3.org/1999/xlink" x="0px" y="0px"
	 viewBox="131 -131 512 512" style="enable-background:new 131 -131 512 512;" xml:space="preserve">
<style type="text/css">
	.st0{fill:#9FC751;}
</style>
<g>
	<g>
		<path class="st0" d="M617.4,116.5V-71.3c0-23.5-19.1-42.7-42.7-42.7H199.3c-23.5,0-42.7,19.1-42.7,42.7v128
			c-14.1,0-25.6,11.5-25.6,25.6v256c0,14.1,11.5,25.6,25.6,25.6h187.7c14.1,0,25.6-11.5,25.6-25.6h71.5c8,0,15.5-3.7,20.3-10.1
			s6.5-14.5,4.4-22.3l-16.8-61.5h48.6v93.9c0,14.1,11.5,25.6,25.6,25.6h93.9c14.1,0,25.6-11.5,25.6-25.6V142.1
			C643,128,631.5,116.5,617.4,116.5z M352.9,338.3c0,4.7-3.8,8.5-8.5,8.5H156.6c-4.7,0-8.5-3.8-8.5-8.5v-17.1h204.8V338.3z
			 M352.9,304.2H148.1V116.5h204.8V304.2z M352.9,99.4H148.1V82.3c0-4.7,3.8-8.5,8.5-8.5h187.7c4.7,0,8.5,3.8,8.5,8.5V99.4z
			 M449.7,310.5c0.7,2.6,0.2,5.3-1.5,7.4s-4.1,3.4-6.8,3.4h-71.5v-17.1h78L449.7,310.5z M369.9,287.1v-42.7h61.7l11.6,42.7H369.9z
			 M497.9,227.4h-128v-51.2h128V227.4z M497.9,142.1v17.1h-128V82.3c0-14.1-11.5-25.6-25.6-25.6H173.7v-128
			c0-14.1,11.5-25.6,25.6-25.6h375.5c14.1,0,25.6,11.5,25.6,25.6v187.7h-76.8C509.4,116.5,497.9,128,497.9,142.1z M625.9,338.3
			c0,4.7-3.8,8.5-8.5,8.5h-93.9c-4.7,0-8.5-3.8-8.5-8.5v-17.1h110.9V338.3z M625.9,304.2H515v-128h110.9V304.2z M625.9,159.1H515
			v-17.1c0-4.7,3.8-8.5,8.5-8.5h93.9c4.7,0,8.5,3.8,8.5,8.5V159.1z"/>
	</g>
</g>
<g>
	<g>
		
			<rect x="175.1" y="218.9" transform="matrix(-0.7071 0.7071 -0.7071 -0.7071 500.9544 247.2805)" class="st0" width="48.3" height="17.1"/>
	</g>
</g>
<g>
	<g>
		
			<rect x="195.1" y="210.3" transform="matrix(-0.7071 0.7071 -0.7071 -0.7071 611.455 184.4462)" class="st0" width="144.8" height="17.1"/>
	</g>
</g>
<g>
	<g>
		
			<rect x="222.8" y="159.1" transform="matrix(-0.7071 0.7071 -0.7071 -0.7071 560.6862 103.0986)" class="st0" width="72.4" height="17.1"/>
	</g>
</g>
<g>
	<g>
		
			<rect x="531.7" y="214.6" transform="matrix(-0.7071 0.7071 -0.7071 -0.7071 1117.0282 -16.4039)" class="st0" width="60.3" height="17.1"/>
	</g>
</g>
<g>
	<g>
		
			<rect x="548.8" y="248.8" transform="matrix(-0.7071 0.7071 -0.7071 -0.7071 1170.3187 29.8617)" class="st0" width="60.3" height="17.1"/>
	</g>
</g>
<g>
	<g>
		
			<rect x="350.8" y="5.5" transform="matrix(-0.7071 0.7071 -0.7071 -0.7071 670.579 -249.6237)" class="st0" width="72.4" height="17.1"/>
	</g>
</g>
<g>
	<g>
		
			<rect x="427.6" y="-11.5" transform="matrix(-0.7071 0.7071 -0.7071 -0.7071 789.6251 -333.0677)" class="st0" width="72.4" height="17.1"/>
	</g>
</g>
<g>
	<g>
		
			<rect x="379.9" y="48.2" transform="matrix(-0.7071 0.7071 -0.7071 -0.7071 729.889 -188.8414)" class="st0" width="48.3" height="17.1"/>
	</g>
</g>
<g>
	<g>
		
			<rect x="422.5" y="-54.1" transform="matrix(-0.7071 0.7071 -0.7071 -0.7071 730.347 -393.7189)" class="st0" width="48.4" height="17.1"/>
	</g>
</g>
<g>
	<g>
		<rect x="190.7" y="-79.8" class="st0" width="17.1" height="17.1"/>
	</g>
</g>
<g>
	<g>
		<rect x="224.9" y="-79.8" class="st0" width="17.1" height="17.1"/>
	</g>
</g>
<g>
	<g>
		<rect x="259" y="-79.8" class="st0" width="17.1" height="17.1"/>
	</g>
</g>
</svg>
